<svg xmlns="http://www.w3.org/2000/svg" viewBox="0 0 600 600" width="600" height="600">
  <defs><radialGradient id="b" cx=".5" cy=".5" r=".6"><stop offset="0" stop-color="#F59E1B"/><stop offset=".5" stop-color="#C2185B"/><stop offset="1" stop-color="#2A1638"/></radialGradient></defs>
  <rect width="600" height="600" fill="url(#b)"/>
  <g opacity=".25" fill="#FFF4DF"><circle cx="80" cy="80" r="4"/><circle cx="520" cy="120" r="5"/><circle cx="460" cy="500" r="4"/><circle cx="120" cy="480" r="5"/><circle cx="300" cy="60" r="3"/></g>
  <!-- crossed dandiyas with sparks -->
  <g stroke-linecap="round">
    <path d="M150 470 L420 170" stroke="#E9B44C" stroke-width="22"/><path d="M150 470 L420 170" stroke="#D6246E" stroke-width="22" stroke-dasharray="18 14"/>
    <path d="M450 470 L180 170" stroke="#E9B44C" stroke-width="22"/><path d="M450 470 L180 170" stroke="#0F8F86" stroke-width="22" stroke-dasharray="18 14"/>
  </g>
  <g fill="#FFF3C4"><path d="M300 240 l12 40 40 12 -40 12 -12 40 -12 -40 -40 -12 40 -12z"/></g>
  <g fill="#F59E1B"><circle cx="140" cy="490" r="14"/><circle cx="460" cy="490" r="14"/></g>
  <g fill="#D6246E"><path d="M130 500 l-10 40 h20z"/><path d="M450 500 l-10 40 h20z"/></g>
  <text x="300" y="560" text-anchor="middle" font-family="Georgia,serif" font-size="34" fill="#FFF4DF" opacity=".9">★ Winners ★</text>
</svg>
