<svg xmlns="http://www.w3.org/2000/svg" viewBox="0 0 600 600" width="600" height="600">
  <defs>
    <linearGradient id="sky" x1="0" y1="0" x2="0" y2="1"><stop offset="0" stop-color="#1A1440"/><stop offset=".7" stop-color="#5A1E4E"/><stop offset="1" stop-color="#C2185B"/></linearGradient>
    <radialGradient id="g" cx=".5" cy=".5" r=".5"><stop offset="0" stop-color="#FFD27A" stop-opacity=".8"/><stop offset="1" stop-color="#FFD27A" stop-opacity="0"/></radialGradient>
  </defs>
  <rect width="600" height="600" fill="url(#sky)"/>
  <path d="M-10 90 Q150 150 300 110 T610 100" fill="none" stroke="#3A2A55" stroke-width="2"/>
  <g fill="#FFD27A"><circle cx="30" cy="104" r="6"/><circle cx="90" cy="122" r="6"/><circle cx="150" cy="130" r="6"/><circle cx="210" cy="124" r="6"/><circle cx="270" cy="114" r="6"/><circle cx="330" cy="108" r="6"/><circle cx="390" cy="108" r="6"/><circle cx="450" cy="106" r="6"/><circle cx="510" cy="104" r="6"/><circle cx="570" cy="102" r="6"/></g>
  <circle cx="300" cy="330" r="200" fill="url(#g)"/>
  <!-- pandal -->
  <path d="M200 340 L300 250 L400 340 Z" fill="#F59E1B"/><rect x="215" y="340" width="170" height="110" fill="#B23A1E"/>
  <rect x="270" y="370" width="60" height="80" rx="30" fill="#FFD27A"/>
  <!-- crowd silhouettes -->
  <g fill="#14092A">
    <circle cx="90" cy="430" r="22"/><path d="M50 600 L60 480 Q90 450 120 480 L135 600Z"/>
    <circle cx="180" cy="450" r="20"/><path d="M140 600 L150 495 Q180 468 210 495 L220 600Z"/>
    <circle cx="420" cy="450" r="20"/><path d="M380 600 L390 495 Q420 468 450 495 L460 600Z"/>
    <circle cx="515" cy="430" r="22"/><path d="M475 600 L485 480 Q515 450 545 480 L555 600Z"/>
  </g>
  <g stroke="#E9B44C" stroke-width="7" stroke-linecap="round"><path d="M70 470 L30 420"/><path d="M110 470 L150 420"/><path d="M495 470 L455 420"/><path d="M535 470 L575 420"/></g>
</svg>
